#!OML:ASF H:\Terrain\Patient Classification 1\Takeo\Monday\TakeoMonday.ASF
:FULLY-SPECIFIED
:DEGREES
872
root 4.91953 16.9037 3.41708 -170.54 84.0723 -173.496
lowerback 18.997 -2.99154 -0.314491
upperback 9.23822 -3.34507 -4.61921
thorax -0.942025 -1.26397 -4.07676
lowerneck -11.2694 -10.931 -7.40695
upperneck -4.37825 -13.6186 9.70618
head 1.84209 -6.47545 3.67315
rclavicle 3.02153e-014 -1.43125e-014
rhumerus -26.3966 -26.8116 -40.7844
rradius 46.6448
rwrist -15.669
rhand -46.786 35.3153
rfingers 7.12502
rthumb -19.5015 6.2733
lclavicle 3.02153e-014 -1.43125e-014
lhumerus -21.8294 -4.3978 81.4936
lradius 82.4617
lwrist 35.8775
lhand -37.0485 24.1858
lfingers 7.12502
lthumb -10.1215 53.9224
rfemur -25.9946 0.0811213 21.5764
rtibia 48.3106
rfoot -24.8649 -10.4486
rtoes 5.12738
lfemur -17.6576 16.4528 -5.33129
ltibia 39.7878
lfoot -14.4901 16.9782
ltoes -7.80001
873
root 4.95058 16.9318 3.41012 -167.576 83.9496 -170.3
lowerback 18.8507 -3.0321 0.349708
upperback 9.12299 -3.31148 -4.54166
thorax -1.02258 -1.24102 -4.37984
lowerneck -11.4835 -11.0391 -7.41143
upperneck -4.16567 -13.7474 10.0852
head 1.79397 -6.51509 3.41368
rclavicle -7.95139e-016 -3.02153e-014
rhumerus -26.3487 -26.1785 -41.9358
rradius 47.057
rwrist -15.227
rhand -47.0898 36.1396
rfingers 7.12502
rthumb -19.7936 7.12743
lclavicle -7.95139e-016 -3.02153e-014
lhumerus -22.0556 -4.67208 81.3336
lradius 82.1063
lwrist 34.4973
lhand -35.3479 24.8936
lfingers 7.12502
lthumb -8.48055 54.7033
rfemur -25.2175 0.270174 21.8779
rtibia 47.6612
rfoot -24.8867 -10.1667
rtoes 5.24499
lfemur -17.1065 16.2346 -4.91076
ltibia 39.3552
lfoot -14.2746 17.2127
ltoes -8.93968
874
root 4.98023 16.9556 3.40189 -166.903 83.8877 -169.487
lowerback 18.5849 -3.13253 0.531751
upperback 9.06117 -3.42651 -4.34346
thorax -0.961929 -1.30632 -4.25435
lowerneck -11.6489 -10.9965 -7.79588
upperneck -4.26106 -13.623 10.3088
head 1.82427 -6.43701 3.53945
rclavicle -5.56597e-015 2.8625e-014
rhumerus -25.5963 -25.4509 -43.1514
rradius 47.2593
rwrist -14.4379
rhand -47.2536 36.8383
rfingers 7.12502
rthumb -19.951 7.84245
lclavicle -5.56597e-015 2.8625e-014
lhumerus -22.2556 -4.47782 81.4014
lradius 81.7873
lwrist 33.4727
lhand -33.496 25.0982
lfingers 7.12502
lthumb -6.69308 54.9725
rfemur -24.6855 0.361647 22.0087
rtibia 47.0571
rfoot -24.6272 -10.6674
rtoes 3.67176
lfemur -16.5863 15.9377 -4.80346
ltibia 38.8572
lfoot -14.3397 17.332
ltoes -8.93448
875
root 5.00824 16.9802 3.39221 -169.573 83.8138 -172.146
lowerback 18.1752 -3.2212 0.44553
upperback 8.99307 -3.56946 -4.2807
thorax -0.827671 -1.38867 -4.12142
lowerneck -11.5839 -10.7738 -8.51357
upperneck -4.45838 -13.2388 11.0943
head 1.83436 -6.22279 3.91461
rclavicle -5.00937e-014 -3.49861e-014
rhumerus -24.9449 -24.8201 -44.3802
rradius 47.564
rwrist -13.5061
rhand -47.2053 36.6263
rfingers 7.12502
rthumb -19.9047 7.62562
lclavicle -5.00937e-014 -3.49861e-014
lhumerus -22.7141 -4.73501 81.4105
lradius 81.9244
lwrist 33.5218
lhand -32.7926 24.527
lfingers 7.12502
lthumb -6.01394 54.4216
rfemur -24.3842 0.133735 21.8625
rtibia 46.3771
rfoot -23.5396 -12.1283
rtoes -2.47942
lfemur -16.2079 15.3341 -5.14238
ltibia 38.3689
lfoot -14.6594 17.5836
ltoes -7.81091
876
root 5.04201 17.0184 3.38751 -172.047 83.7562 -174.584
lowerback 17.8503 -3.19095 0.535462
upperback 8.82363 -3.54191 -4.42775
thorax -0.853937 -1.37988 -4.34103
lowerneck -11.2317 -10.6361 -8.37606
upperneck -4.71997 -13.082 11.4101
head 1.70649 -6.15439 4.02412
rclavicle -1.03368e-014 3.49861e-014
rhumerus -25.3177 -24.2291 -45.5555
rradius 48.3459
rwrist -12.8049
rhand -47.0926 35.9917
rfingers 7.12502
rthumb -19.7963 6.97985
lclavicle -1.03368e-014 3.49861e-014
lhumerus -23.2154 -5.53444 81.2402
lradius 82.0706
lwrist 33.9184
lhand -32.8752 24.0318
lfingers 7.12502
lthumb -6.09376 53.9242
rfemur -23.7744 0.497811 21.4198
rtibia 45.7692
rfoot -24.0328 -11.2382
rtoes 2.44173
lfemur -15.7988 14.6318 -5.46375
ltibia 37.8983
lfoot -14.7602 18.1678
ltoes -7.0966
877
root 5.07349 17.0407 3.38125 -172.5 84.0749 -174.929
lowerback 17.6427 -2.90381 0.744382
upperback 8.64808 -3.15975 -4.53787
thorax -0.919754 -1.19188 -4.65252
lowerneck -10.7676 -10.7092 -7.39812
upperneck -5.22185 -13.2727 10.8224
head 1.39224 -6.29256 3.7313
rclavicle -2.46493e-014 1.11319e-014
rhumerus -26.1227 -23.8397 -46.4578
rradius 49.1954
rwrist -12.2988
rhand -46.9263 35.6715
rfingers 7.12502
rthumb -19.6364 6.64327
lclavicle -2.46493e-014 1.11319e-014
lhumerus -23.3234 -6.49883 81.3151
lradius 81.8747
lwrist 34.2535
lhand -33.5193 24.2249
lfingers 7.12502
lthumb -6.71558 54.0984
rfemur -23.2865 0.84351 21.3498
rtibia 45.1125
rfoot -23.6361 -11.6503
rtoes 2.25114
lfemur -15.2329 14.5127 -5.52807
ltibia 37.4846
lfoot -14.5904 18.7156
ltoes -6.94466
878
root 5.10386 17.0568 3.37714 -169.619 84.4385 -171.941
lowerback 17.354 -2.65602 0.916906
upperback 8.54543 -2.82711 -4.24137
thorax -0.845296 -1.03835 -4.5012
lowerneck -10.4547 -10.774 -6.72945
upperneck -5.82556 -13.4088 9.63072
head 1.13496 -6.4028 3.62367
rclavicle 1.74931e-014 6.36111e-015
rhumerus -25.9793 -23.3146 -47.2194
rradius 49.6237
rwrist -11.9005
rhand -46.6553 35.907
rfingers 7.12502
rthumb -19.3759 6.85229
lclavicle 1.74931e-014 6.36111e-015
lhumerus -23.3287 -6.93219 81.8798
lradius 81.5689
lwrist 34.2404
lhand -34.1604 24.4671
lfingers 7.12502
lthumb -7.33443 54.32
rfemur -22.8214 1.24716 21.6819
rtibia 44.487
rfoot -23.183 -12.1519
rtoes 2.31547
lfemur -14.6645 14.7881 -5.1929
ltibia 37.1144
lfoot -14.145 19.0161
ltoes -7.95538
879
root 5.13452 17.0834 3.37703 -164.5 84.6105 -166.563
lowerback 17.2603 -2.63556 1.16503
upperback 8.46889 -2.77664 -3.78684
thorax -0.865377 -1.02671 -4.16774
lowerneck -10.7191 -10.7117 -6.57879
upperneck -6.07481 -13.2924 8.97745
head 1.01787 -6.34379 3.38096
rclavicle 3.18055e-015 1.90833e-014
rhumerus -25.2681 -21.95 -48.1783
rradius 50.005
rwrist -11.8926
rhand -46.68 36.1904
rfingers 7.12502
rthumb -19.3996 7.13813
lclavicle 3.18055e-015 1.90833e-014
lhumerus -23.6514 -6.79371 82.3753
lradius 81.5182
lwrist 33.9323
lhand -33.9081 24.7152
lfingers 7.12502
lthumb -7.09087 54.5764
rfemur -22.1803 1.67985 22.2549
rtibia 43.9308
rfoot -22.8814 -12.4074
rtoes 2.5038
lfemur -13.9583 14.6989 -4.57166
ltibia 36.726
lfoot -14.0584 19.2765
ltoes -7.90378
880
root 5.16261 17.0992 3.37654 -165.617 84.7773 -167.493
lowerback 17.1702 -2.6892 1.28444
upperback 8.35846 -2.8469 -3.89024
thorax -0.952506 -1.06421 -4.33312
lowerneck -10.9352 -10.6527 -6.66219
upperneck -6.18791 -13.176 9.19007
head 1.03364 -6.27302 3.46774
rclavicle -8.74653e-015 -6.36111e-014
rhumerus -25.0765 -20.7293 -49.5953
rradius 50.5727
rwrist -11.6477
rhand -46.9989 36.4396
rfingers 7.12502
rthumb -19.7062 7.41849
lclavicle -8.74653e-015 -6.36111e-014
lhumerus -24.1345 -7.00812 82.2255
lradius 81.7373
lwrist 34.0229
lhand -34.03 24.9957
lfingers 7.12502
lthumb -7.20849 54.8529
rfemur -21.6251 2.07254 22.1102
rtibia 43.452
rfoot -22.7704 -12.2943
rtoes 3.32249
lfemur -13.3819 14.1809 -4.67714
ltibia 36.3709
lfoot -14.4161 19.6965
ltoes -6.53887
881
root 5.19199 17.1177 3.37676 -174.187 85.0106 -176.213
lowerback 16.746 -2.62085 0.865559
upperback 8.12051 -2.85266 -4.28824
thorax -0.984938 -1.08173 -4.5233
lowerneck -10.8129 -10.589 -6.47596
upperneck -6.16991 -13.1216 9.53906
head 1.03108 -6.24946 3.56242
rclavicle -1.35174e-014 7.95139e-015
rhumerus -25.2832 -20.1431 -50.9945
rradius 51.1097
rwrist -11.0081
rhand -46.9176 36.8831
rfingers 7.12502
rthumb -19.6281 7.85395
lclavicle -1.35174e-014 7.95139e-015
lhumerus -24.56 -7.5787 81.9727
lradius 81.8905
lwrist 34.4313
lhand -35.9839 25.1268
lfingers 7.12502
lthumb -9.09427 54.9107
rfemur -21.4769 2.33269 21.1996
rtibia 43.0748
rfoot -22.69 -12.1857
rtoes 4.07641
lfemur -13.1455 13.7291 -5.65025
ltibia 35.9841
lfoot -14.8595 20.1069
ltoes -4.85481
882
root 5.2188 17.126 3.37258 -175.187 85.2441 -177.178
lowerback 16.5654 -2.53047 0.798431
upperback 7.87788 -2.77516 -4.19934
thorax -1.1354 -1.06272 -4.40376
lowerneck -10.7669 -10.4757 -6.50858
upperneck -5.96888 -12.9863 9.55849
head 1.08378 -6.18332 3.58241
rclavicle -2.38542e-015 9.54166e-015
rhumerus -25.3306 -19.2583 -51.981
rradius 51.7044
rwrist -10.7205
rhand -46.6207 37.6091
rfingers 7.12502
rthumb -19.3426 8.55104
lclavicle -2.38542e-015 9.54166e-015
lhumerus -24.8296 -7.83976 82.2307
lradius 81.7615
lwrist 34.3834
lhand -41.5661 26.011
lfingers 7.12502
lthumb -14.4771 55.486
rfemur -21.1549 2.75837 21.055
rtibia 42.726
rfoot -22.8652 -12.0646
rtoes 5.46692
lfemur -12.6871 13.4028 -5.79195
ltibia 35.5599
lfoot -15.0378 20.5293
ltoes -4.01796
